<?xml version="1.0" encoding="UTF-8"?> <svg xmlns="http://www.w3.org/2000/svg" xmlns:xlink="http://www.w3.org/1999/xlink" xmlns:v="https://vecta.io/nano" viewBox="0 0 120 34"><style><![CDATA[.L{enable-background:new}.M{opacity:.5}.N{opacity:.35}.O{opacity:.3}]]></style><defs><path id="A" d="M0 0h120v34H0z"></path><path id="B" d="M97.7,15l-1.8,2.2h1.8V15z"></path><path id="C" d="M102.7 17.3h-.9v1.9h.9v-1.9z"></path><path id="D" d="M102.7 17.3v1.9h.6c.6 0 .8.2.8.8v.9h2.4V17h-3.8v.3z"></path><path id="E" d="M93.2 12.6v2.2h1.6l3.9-4.7.1-.1v-.6h2.1V4.1h1V2.2h.8V.5h-17v12.1h7.5z"></path><path id="F" d="M97.7,17.3h-1.8l-1.6,1.9h3.4V17.3z"></path><path id="G" d="M102.7 31.5v-9.9h-.9v2.9c0 .6-.2.8-.8.8h-1.1c-.6 0-.8-.2-.8-.8v-2.9h-1.5v7.8h-8.9v-1.5h-3.1V34h6.2v-2.5h10.9z"></path><path id="H" d="M94.8 14.8h-1.6v1.9l1.6-1.9z"></path><path id="I" d="M113.5,4.1h-2.7v4.3h5.5v6.1h-5.1V17h6.8V6.6h-4.4V4.1z"></path><path id="J" d="M108.3,14.8h-1.8V17h1.8V14.8z"></path><path id="K" d="M117.9,4.1h-4.4v2.5h4.4V4.1z"></path><path id="L" d="M117.9 17v3.8h-6.8v3.7c0 .6-.2.8-.8.8H109h-.2v6.2h-6.2v2.2h17V17h-1.7z"></path><path id="M" d="M108.3 24.6v-3.7h-4.2 0c0 .6-.2.8-.8.8h-.6v9.9h6.2v-6.2c-.4-.1-.6-.3-.6-.8z"></path><path id="N" d="M117.9,17h-6.8v3.8h6.8V17z"></path><path id="O" d="M106.5 20.8h-2.4 0 4.2V17h-1.8v3.8z"></path><path id="P" d="M91.9 27.9v-2.5h-1.8v-4.1h-1.3v6.6h3.1z"></path><path id="Q" d="M96.3 25.4h-4.4v2.5h-3.1v1.5h8.9v-7.8h-1.3v3.8z"></path><path id="R" d="M99.8 9.5h1.1v-.1h-2.1v.6c.2-.4.6-.5 1-.5z"></path><path id="S" d="M102.7 12.1h1.3c-.2-.1-.4-.3-.4-.7V11h-.9v1.1z"></path><path id="T" d="M101 9.5c.6 0 .8.1.8.8v1.8h.9V11h-.8V9.4h-1v.1h.1 0z"></path><path id="U" d="M102.7 2.2h-.8v1.9h.8V2.2z"></path><path id="V" d="M102.7 9.4h2.3v.1h5.1V8.4h.7V4.1h-8.1v5.3z"></path><path id="W" d="M102.7 4.1h-.8v5.3h.8V4.1z"></path><path id="X" d="M102.7 9.4V11h.9v-.7c0-.6.2-.8.8-.8h.5v-.1h-2.2z"></path><path id="Y" d="M102.7 9.4h-.8V11h.8V9.4z"></path><path id="Z" d="M91.7 21.7c-.4 0-.6-.1-.7-.3h-.9v4.1h1.8v-3.7h-.2z"></path><path id="a" d="M96.3,21.7h-4.4v3.8h4.4V21.7z"></path><path id="b" d="M115 9.5c.6 0 .8.2.8.8v1.1c0 .6-.2.8-.8.8h-3.9v2.3h5.1V8.4h-5.5v1.2h4.3z"></path><path id="c" d="M110.7 8.4h-.7v1.2h.7V8.4z"></path><path id="d" d="M88.8 21.3v-.6h1.3v-1.4h1v-.1l.7-.8v-1.1h-6.2v-4.7h-1.3v8.8h4.5z"></path><path id="e" d="M93.2 14.8v-2.2h-7.5v4.7h6.2v-2.5h1.3z"></path><path id="f" d="M91.9 17.3v1.1l.9-1.1h-.9z"></path><path id="g" d="M93.2 16.7v-1.9h-1.3v2.5h.9l.4-.6z"></path><path id="h" d="M88.8 20.7v.6h1.3v-.6h-1.3z"></path><path id="i" d="M90.9 20.1c0-.3.1-.6.2-.8h-1v1.4h.8v-.6z"></path><path id="j" d="M90.9 20.9v-.2h-.8v.6h.9c-.1-.1-.1-.2-.1-.4z"></path><path id="k" d="M98.8 13.7l-.9 1.1h.9v-1.1z"></path><path id="l" d="M99.1,17.3h-1.5v1.9h1.5V17.3z"></path><path id="m" d="M99.1 17.3v-1.7h-.4v-.8h-.9l-.1.2v2.2h1.4z"></path><path id="n" d="M106.5,12.1H105v2.7h1.5V12.1z"></path><path id="o" d="M102.7 15.5V17h3.8v-2.3H105v.8h-2.3z"></path><path id="p" d="M102.7 17v-1.5h-.9v1.7h.9V17z"></path><path id="q" d="M106.5 17h-3.8v.2 1.9h.6c.6 0 .8.2.8.8v.9h2.4V17z"></path><path id="r" d="M99.1 14.8v-1.5l-.4.5v1.1h.4z"></path><path id="s" d="M99.1 14.8h-.4v.8h.4v-.8z"></path><path id="t" d="M102.7 14.8h2.3v-2.6h-.5-.4-1.3v2.6z"></path><path id="u" d="M102.7 12.1h-.9v2.7h.9v-2.7z"></path><path id="v" d="M104.9 14.8h-2.3v.8h2.3v-.8z"></path><path id="w" d="M102.7 14.8h-.9v.8h.9v-.8z"></path></defs><clipPath id="x"><use xlink:href="#A"></use></clipPath><g clip-path="url(#x)"><g fill="#0096cb" class="L"><use xlink:href="#B" opacity=".2"></use><use xlink:href="#C" class="O"></use><path d="M101.8 17.3h.9V17v-5h-.9v5.3zm-2.7 0v-4L97.7 15v2.2h1.4z" opacity=".2"></path><use xlink:href="#D" opacity=".1"></use></g><g fill="#70a83b"><path d="M15.7 9.4v15.1c0 2.1-.8 3.5-2.3 4.4-1.2.7-3.2 1.1-5.9 1.1-2.2 0-3.9-.6-5-1.7-.9-.9-1.3-1.9-1.3-3.1h4c.3 1.3 1.4 1.9 3.2 1.9 2.4 0 3.6-1 3.6-3.1v-1.6c-1.1 1-2.6 1.6-4.5 1.6-2 0-3.6-.7-4.9-2C1.3 20.6.7 18.8.7 16.5s.6-4.1 1.9-5.5 2.9-2 4.9-2c1.9 0 3.3.6 4.4 1.9h0V9.4h3.8zm-3.6 7.1c0-1-.2-1.9-.8-2.7-.7-1-1.7-1.4-2.9-1.4-1.3 0-2.2.5-2.9 1.4-.5.8-.8 1.6-.8 2.7 0 1 .3 1.9.8 2.7.6 1 1.6 1.4 2.9 1.4s2.3-.5 2.9-1.4c.5-.8.8-1.7.8-2.7zm7.3 8.3V9.4h3.8v2.1C24 9.9 25.6 9 28 9v3.8c-1.4 0-2.5.3-3.4 1-1 .8-1.5 2-1.5 3.5v7.5h-3.7zm45.4 0V9.4h3.8v1.5C69.6 9.7 71 9 72.8 9c3.6 0 5.4 1.7 5.4 5.2v10.6h-3.8v-9.4c0-1.8-.9-2.8-2.6-2.8-1 0-1.7.3-2.3 1s-1 1.7-1 3.1v8.2h-3.7zM44.7 18H33.2c0 1.1.4 2 1.3 2.8a3.94 3.94 0 0 0 2.7 1c2 0 3.5-.7 4.5-2.2l3.2 1.8c-1.7 2.5-4.2 3.8-7.7 3.8-2.5 0-4.4-.8-5.9-2.3-1.4-1.5-2.1-3.4-2.1-5.8s.7-4.3 2.1-5.8C32.8 9.8 34.7 9 37.2 9c5 0 7.5 3 7.5 9zm-11.5-2.9h7.6c0-.6-.3-1.2-.8-1.8-.7-.8-1.6-1.2-2.7-1.2-1 0-1.9.3-2.7.9-.8.5-1.2 1.2-1.4 2.1zM54.4 9c2.5 0 4.4.8 5.9 2.3 1.4 1.5 2.1 3.4 2.1 5.8s-.7 4.3-2.1 5.8c-1.5 1.5-3.4 2.3-5.9 2.3-3.5 0-6-1.3-7.7-3.8l3.2-1.8c1 1.5 2.6 2.2 4.5 2.2 1.1 0 2-.3 2.7-1 .8-.7 1.3-1.6 1.3-2.8H46.9c0-6 2.5-9 7.5-9zm2.7 3.9c-.7-.6-1.6-.9-2.7-.9s-2 .4-2.7 1.2c-.5.6-.8 1.2-.8 1.8h7.6c-.2-.8-.7-1.5-1.4-2.1z"></path></g><g fill="#0096cb"><path d="M119.7 6.6V.5h-6.2 6.2v6.1zm-1.8 0V17h1.8v16.8V17h-1.8V6.6zm-15.2-4.4h8.1v1.9h2.7-2.7V2.2h-8.1V.5h-17 17v1.7z" class="L M"></path><use xlink:href="#E" class="L M"></use><use xlink:href="#E" class="L N"></use><use xlink:href="#F" class="L M"></use><use xlink:href="#F" class="L M"></use><use xlink:href="#G" class="L M"></use><use xlink:href="#G" class="L M"></use><use xlink:href="#B" class="L M"></use><use xlink:href="#B" class="L N"></use><use xlink:href="#B" class="L M"></use><use xlink:href="#H" class="L M"></use><use xlink:href="#H" class="L N"></use><use xlink:href="#H" class="L M"></use><use xlink:href="#I" class="L M"></use><use xlink:href="#I" class="L M"></use><path d="M108.3,12.1h-1.8v2.7h1.8V12.1z" class="L M"></path><path d="M108.3 12.1h-1.8v2.7h1.8v-2.7zm-6.4-8h-1v5.3h1V4.1z" class="L M"></path><path d="M101.9,4.1h-1v5.3h1V4.1z" class="L N"></path><path d="M101.9,4.1h-1v5.3h1V4.1z" class="L M"></path><use xlink:href="#J" class="L M"></use><use xlink:href="#J" class="L M"></use><use xlink:href="#J" class="L M"></use><path d="M85.6 27.9V34h6.2-6.2v-6.1zm32.3-23.8v2.5h1.8V.5h-6.2v3.6h4.4z" class="L M"></path><path d="M117.9 4.1v2.5h1.8V.5h-6.2v3.6h4.4z" opacity=".1" class="L"></path><use xlink:href="#K" class="L M"></use><use xlink:href="#K" class="L M"></use><use xlink:href="#K" opacity=".1" class="L"></use><path d="M102.7 31.5v2.3h17-17v-2.3z" class="L M"></path><use xlink:href="#L" class="L M"></use><use xlink:href="#L" class="L M"></use><use xlink:href="#M" class="L M"></use><use xlink:href="#M" class="L M"></use><use xlink:href="#M" class="L M"></use><use xlink:href="#N" class="L M"></use><use xlink:href="#N" class="L M"></use><use xlink:href="#N" class="L M"></use><use xlink:href="#O" class="L M"></use><use xlink:href="#O" class="L M"></use><use xlink:href="#O" class="L M"></use><use xlink:href="#O" class="L M"></use><use xlink:href="#P" class="L M"></use><use xlink:href="#P" class="L M"></use><use xlink:href="#Q" class="L M"></use><use xlink:href="#Q" class="L M"></use><use xlink:href="#Q" class="L M"></use><use xlink:href="#R" class="L M"></use><use xlink:href="#R" class="L N"></use><use xlink:href="#R" class="L M"></use><use xlink:href="#S" class="L M"></use><use xlink:href="#S" class="L M"></use><use xlink:href="#S" class="L M"></use><use xlink:href="#T" class="L M"></use><use xlink:href="#T" class="L N"></use><use xlink:href="#T" class="L M"></use><use xlink:href="#T" class="L M"></use><path d="M110.7,2.2h-8v1.9h8V2.2z" class="L M"></path><path d="M110.7,2.2h-8v1.9h8V2.2z" class="L M"></path><use xlink:href="#U" class="L M"></use><use xlink:href="#U" class="L N"></use><use xlink:href="#U" class="L M"></use><use xlink:href="#V" class="L M"></use><use xlink:href="#V" class="L M"></use><use xlink:href="#V" class="L M"></use><use xlink:href="#W" class="L M"></use><use xlink:href="#W" class="L N"></use><use xlink:href="#W" class="L M"></use><use xlink:href="#W" class="L M"></use><use xlink:href="#X" class="L M"></use><use xlink:href="#X" class="L M"></use><use xlink:href="#X" class="L M"></use><use xlink:href="#X" class="L M"></use><use xlink:href="#Y" class="L M"></use><use xlink:href="#Y" class="L N"></use><use xlink:href="#Y" class="L M"></use><use xlink:href="#Y" class="L M"></use><use xlink:href="#Y" class="L M"></use><use xlink:href="#Z" class="L M"></use><use xlink:href="#Z" class="L M"></use><use xlink:href="#Z" class="L M"></use><use xlink:href="#a" class="L M"></use><use xlink:href="#a" class="L M"></use><use xlink:href="#a" class="L M"></use><use xlink:href="#a" class="L M"></use><use xlink:href="#b" class="L M"></use><use xlink:href="#b" class="L M"></use><use xlink:href="#b" class="L M"></use><use xlink:href="#c" class="L M"></use><use xlink:href="#c" class="L M"></use><use xlink:href="#c" class="L M"></use><use xlink:href="#c" class="L M"></use><path d="M84.3 21.3v-8.8 8.8h4.4-4.4z" class="L M"></path><use xlink:href="#d" class="L M"></use><use xlink:href="#d" class="L M"></use><use xlink:href="#e" class="L M"></use><use xlink:href="#e" class="L N"></use><use xlink:href="#e" class="L M"></use><use xlink:href="#f" class="L M"></use><use xlink:href="#f" class="L M"></use><use xlink:href="#f" class="L M"></use><use xlink:href="#g" class="L M"></use><use xlink:href="#g" class="L N"></use><use xlink:href="#g" class="L M"></use><use xlink:href="#g" class="L M"></use><use xlink:href="#h" class="L M"></use><use xlink:href="#h" class="L M"></use><use xlink:href="#h" class="L M"></use><use xlink:href="#i" class="L M"></use><use xlink:href="#i" class="L M"></use><use xlink:href="#i" class="L M"></use><use xlink:href="#j" class="L M"></use><use xlink:href="#j" class="L M"></use><use xlink:href="#j" class="L M"></use><use xlink:href="#j" class="L M"></use><use xlink:href="#k" class="L M"></use><use xlink:href="#k" class="L N"></use><use xlink:href="#k" class="L M"></use><use xlink:href="#l" class="L M"></use><use xlink:href="#l" class="L M"></use><use xlink:href="#l" class="L M"></use><use xlink:href="#m" class="L M"></use><use xlink:href="#m" class="L N"></use><use xlink:href="#m" class="L M"></use><use xlink:href="#m" class="L M"></use><use xlink:href="#n" class="L M"></use><use xlink:href="#n" class="L M"></use><use xlink:href="#n" class="L M"></use><use xlink:href="#o" class="L M"></use><use xlink:href="#o" class="L M"></use><use xlink:href="#o" class="L M"></use><use xlink:href="#o" class="L M"></use><use xlink:href="#C" class="L M"></use><use xlink:href="#C" class="L M"></use><use xlink:href="#C" class="L M"></use><use xlink:href="#C" class="L M"></use><use xlink:href="#p" class="L M"></use><use xlink:href="#p" class="L N"></use><use xlink:href="#p" class="L M"></use><use xlink:href="#p" class="L M"></use><use xlink:href="#p" class="L M"></use><use xlink:href="#q" class="L M"></use><use xlink:href="#q" class="L M"></use><use xlink:href="#q" class="L M"></use><use xlink:href="#q" class="L M"></use><use xlink:href="#q" class="L M"></use><use xlink:href="#r" class="L M"></use><use xlink:href="#r" class="L N"></use><use xlink:href="#r" class="L M"></use><use xlink:href="#r" class="L M"></use><use xlink:href="#s" class="L M"></use><use xlink:href="#s" class="L N"></use><use xlink:href="#s" class="L M"></use><use xlink:href="#s" class="L M"></use><use xlink:href="#s" class="L M"></use><use xlink:href="#t" class="L M"></use><use xlink:href="#t" class="L M"></use><use xlink:href="#t" class="L M"></use><use xlink:href="#t" class="L M"></use><use xlink:href="#u" class="L M"></use><use xlink:href="#u" class="L N"></use><use xlink:href="#u" class="L M"></use><use xlink:href="#u" class="L M"></use><use xlink:href="#u" class="L M"></use><use xlink:href="#v" class="L M"></use><use xlink:href="#v" class="L M"></use><use xlink:href="#v" class="L M"></use><use xlink:href="#v" class="L M"></use><use xlink:href="#v" class="L M"></use><use xlink:href="#w" class="L M"></use><use xlink:href="#w" class="L N"></use><use xlink:href="#w" class="L M"></use><use xlink:href="#w" class="L M"></use><use xlink:href="#w" class="L M"></use><use xlink:href="#w" class="L M"></use><path d="M108.3,12.1h-1.8V17h1.8V12.1z"></path><use xlink:href="#F"></use></g><g fill="#70a83b" class="L"><path d="M99.8 9.5h1.2c.6 0 .8.1.8.8v1.8h.9V.5h-17v16.8h7.1l5.9-7.2c.3-.4.6-.6 1.1-.6z" opacity=".2"></path><path d="M91.9,27.9h-6.2V34h6.2V27.9z" class="O"></path><path d="M119.7.5h-6.2v6.1h6.2V.5z" opacity=".2"></path><path d="M111.1 24.6c0 .6-.2.8-.8.8H109c-.6 0-.8-.2-.8-.8V17h-1.8v3.8H104v.1c0 .6-.2.8-.8.8h-.6v12.1h17V17H111v7.6z" opacity=".1"></path><path d="M106.5 17v-4.9h-2.1-.4-1.3V17h3.8zm-7.3.3h-1.5v1.9h1.5v-1.9z" class="O"></path><path d="M101.8 17.3h.9V17v-5h-.9v5.3zm-2.7 0v-4L97.7 15v2.2h1.4z" class="O"></path><use xlink:href="#D" class="O"></use></g></g></svg> 