<svg width="78" height="40" viewBox="0 0 78 40" fill="none" xmlns="http://www.w3.org/2000/svg">
<path fill-rule="evenodd" clip-rule="evenodd" d="M31.6649 9.99969H46.6645V14.9984H44.9987V16.6654H43.3209V18.3324H44.9987V19.9982H46.6645V28.3321H45.1164H43.3316V29.9991H34.999V28.3321H31.6649V23.3322H36.0798V24.9981H41.6646V21.6652H34.999V19.9982H36.6553V18.3324H38.3318V16.6333H39.9988V14.9984H31.6649V9.99969Z" fill="black"/>
<path fill-rule="evenodd" clip-rule="evenodd" d="M6.66687 9.99969H11.6608V19.9994H13.3254V18.3348H14.99V15.0055H18.3193V18.3348H19.9839V19.9994H21.6486V9.99969H26.6425V29.9979H21.6486V28.3333H19.9839V26.6686H18.3193V24.9933H14.99V26.6579H13.3254V28.3226H11.6608V29.9872H9.99614V24.9933H6.66687V9.99969Z" fill="black"/>
<path d="M8.33269 26.665H0V34.9977H8.33269V26.665Z" fill="#8862D4"/>
<path fill-rule="evenodd" clip-rule="evenodd" d="M51.6643 34.999V4.99985H46.6704V0H56.6666V39.9988H46.6669V34.999H51.6608" fill="#8862D4"/>
<path d="M72.6673 33.9978C72.5368 33.9963 72.4074 34.0209 72.2867 34.0704C72.166 34.1198 72.0564 34.193 71.9645 34.2855C71.8701 34.3738 71.7946 34.4803 71.7427 34.5987C71.6907 34.717 71.6635 34.8447 71.6625 34.974V36.9953C71.6632 37.2616 71.7692 37.5168 71.9575 37.7051C72.1458 37.8934 72.401 37.9994 72.6673 38.0001H74.6648C74.9292 37.9954 75.1813 37.8879 75.3676 37.7002C75.5539 37.5126 75.6597 37.2597 75.6624 36.9953V34.9978C75.6578 34.7346 75.5513 34.4835 75.3652 34.2974C75.1791 34.1113 74.928 34.0048 74.6648 34.0002L72.6673 33.9978ZM67.4153 29.9979H67.9159C68.4129 29.9979 68.6626 30.25 68.6626 30.7506V31.2523C68.6626 31.7482 68.4129 31.9979 67.9159 31.9979H67.4153C66.9136 31.9979 66.6627 31.7482 66.6627 31.2523V30.7506C66.6627 30.25 66.9136 29.9979 67.4153 29.9979ZM67.4153 33.0073H67.9159C68.4129 33.0073 68.6626 33.2547 68.6626 33.7529V39.245C68.6626 39.7467 68.4137 39.9976 67.9159 39.9976H67.4153C66.9136 39.9976 66.6627 39.7467 66.6627 39.245V33.7529C66.6627 33.2547 66.9136 33.0073 67.4153 33.0073ZM63.6628 37.0025C63.6628 37.4103 63.7817 37.679 64.0397 37.811C64.231 37.925 64.4465 37.9922 64.6687 38.0072V38.0001H64.9148C65.4142 38.0001 65.6643 38.2513 65.6651 38.7539V39.2545C65.6651 39.7515 65.415 40 64.9148 40H64.6687C64.2743 40.0008 63.8837 39.9239 63.519 39.7736C63.1544 39.6234 62.823 39.4028 62.5436 39.1244C62.2642 38.8461 62.0425 38.5154 61.8909 38.1513C61.7394 37.7872 61.6611 37.3968 61.6605 37.0025V30.7625C61.6605 30.2615 61.9117 30.0114 62.4143 30.0122H62.9149C63.4119 30.0122 63.6604 30.2623 63.6604 30.7625V37.0025H63.6628ZM71.6625 32.175C71.9849 32.0595 72.3248 32.0004 72.6673 32.0002H74.6672C75.4617 32.0037 76.2226 32.3213 76.7838 32.8838C77.345 33.4463 77.6608 34.208 77.6624 35.0025V36.9977C77.6627 37.3917 77.5854 37.7818 77.4349 38.1459C77.2844 38.51 77.0637 38.8409 76.7854 39.1197C76.507 39.3985 76.1765 39.6197 75.8127 39.7707C75.4488 39.9218 75.0588 39.9997 74.6648 40H72.6673C72.2731 40.0006 71.8827 39.9236 71.5183 39.7732C71.154 39.6229 70.8228 39.4023 70.5438 39.1239C70.2647 38.8455 70.0433 38.5149 69.8921 38.1509C69.7409 37.7869 69.6629 37.3966 69.6626 37.0025V30.7625C69.6626 30.2615 69.9135 30.0114 70.4153 30.0122H70.9158C71.4128 30.0122 71.6617 30.2615 71.6625 30.7601V32.1726V32.175Z" fill="#8862D4"/>
</svg>
